<?xml version="1.0" encoding="UTF-8"?><svg id="art" xmlns="http://www.w3.org/2000/svg" viewBox="0 0 576.00013 364.21636"><defs><style>.cls-1{fill:#f7f3e3;}</style></defs><path class="cls-1" d="M117.20122,231.6345h39.55782l10.13721,10.13818v25.54394l-8.74533,8.64633,8.94528,22.76116h-16.89664l-8.34932-21.27028h-7.3554v21.27028h-17.29363v-67.0896ZM149.7026,261.85006v-13.71687l-2.08684-2.08684h-13.12091v17.89056h13.12091l2.08684-2.08684Z"/><path class="cls-1" d="M191.87334,231.6345h29.9166l10.13818,10.13818v46.81324l-10.13818,10.13818h-29.9166l-10.13818-10.13818v-46.81324l10.13818-10.13818ZM214.63353,282.12545v-33.89228l-2.08684-2.08781h-11.43008l-2.08684,2.08781v33.89228l2.08684,2.08781h11.43008l2.08684-2.08781Z"/><path class="cls-1" d="M288.20302,298.7241h-40.65172v-67.0896h40.15476l10.13818,10.13818v16.79667l-6.36148,6.85844,6.85844,6.85844v16.29971l-10.13818,10.13818ZM281.24558,256.78049v-9.74022l-2.08684-2.08684h-14.41184v13.91488h14.41184l2.08684-2.08781ZM281.24558,283.91431v-10.63417l-2.08684-2.08781h-14.41184v14.8098h14.41184l2.08684-2.08781Z"/><path class="cls-1" d="M323.2387,231.6345h29.9166l10.13818,10.13818v46.81324l-10.13818,10.13818h-29.9166l-10.13818-10.13818v-46.81324l10.13818-10.13818ZM345.99889,282.12545v-33.89228l-2.08684-2.08781h-11.43008l-2.08684,2.08781v33.89228l2.08684,2.08781h11.43008l2.08684-2.08781Z"/><path class="cls-1" d="M375.89608,231.6345h47.70816v14.51084h-15.20678v52.57876h-17.2946v-52.57876h-15.20678v-14.51084Z"/><path class="cls-1" d="M453.65964,231.6345v67.0896h-17.19559v-67.0896h17.19559Z"/><path class="cls-1" d="M501.27656,273.67713h17.2946v14.9088l-10.13818,10.13818h-28.92268l-10.13818-10.13818v-46.81324l10.13818-10.13818h28.92268l10.13818,10.13818v14.70982h-17.2946v-8.34932l-2.08684-2.08684h-10.43616l-2.08684,2.08684v33.99226l2.08684,2.08781h10.43616l2.08684-2.08781v-8.44832Z"/><path class="cls-1" d="M551.94707,257.87438h17.19462l6.85844,6.85747v27.2338l-6.85844,6.75846h-36.57606v-14.51084h24.15206l2.08684-2.08781v-7.35443l-2.08684-2.08781h-17.3936l-6.75846-6.75846v-27.4318l6.75846-6.85844h35.78112v14.41184h-23.15814l-2.08781,2.08684v7.65338l2.08781,2.08781Z"/><path class="cls-1" d="M0,0h122.79865l32.36289,32.36599v93.60573l-32.36289,32.36599H55.20966v73.29681h47.54346L0,364.21636V0ZM55.20966,112.96025h38.07691l6.66222-6.66222v-53.62622l-6.66222-6.66222h-38.07691v66.95066Z"/><path class="cls-1" d="M227.60116.00759v214.16744h-54.8928V.00759h54.8928Z"/><path class="cls-1" d="M425.12397,214.18261h-60.28844l-36.85483-72.03285-22.4823,33.78087v38.25197h-55.21276V0h55.21276v89.16219L361.02722,0h61.55891l-61.87498,92.9705,64.41282,121.21211Z"/><path class="cls-1" d="M436.0655,214.18261V0h139.9345v46.0096h-85.03781v37.44167h73.61288v45.69353h-73.61288v38.71214h85.03781v46.32567h-139.9345Z"/></svg>